<svg width="285" height="10" viewBox="0 0 285 10" fill="none" xmlns="http://www.w3.org/2000/svg">
<g clip-path="url(#clip0_20_3144)">
<path d="M0.0129565 5.45743L122.154 4.93469V6.71462L0 6.06642L0.0129565 5.45743Z" fill="#9284FF"/>
<path d="M162.923 6.71455V4.93201L285 5.45475V6.06635L162.923 6.71455Z" fill="#9284FF"/>
<path d="M137.251 3.816C140.042 3.88918 141.584 2.50915 142.491 0C143.323 2.59017 144.971 3.83168 147.689 3.78463C145.647 5.41035 144.779 7.30267 145.704 9.94773C143.509 8.50758 141.457 8.31417 139.298 10C140.003 7.42551 139.516 5.3999 137.251 3.816Z" fill="#9284FF"/>
<path d="M129.291 7.95087C129.55 6.48459 129.436 5.29797 127.809 4.32306C129.537 4.15056 130.69 3.70361 131.066 2.09619C131.664 3.52066 132.53 4.30215 134.378 4.18715C133.064 5.3032 132.382 6.30163 132.991 7.81757C131.67 7.15631 130.501 6.83482 129.291 7.95087Z" fill="#9284FF"/>
<path d="M150.783 4.39368C152.296 4.21072 153.279 3.64354 153.709 1.82703C154.357 3.45013 155.196 4.33356 156.855 4.20026C156.295 4.90335 155.74 5.33983 155.559 5.90178C155.378 6.46372 155.606 7.08578 155.67 7.89864C154.46 7.31579 153.304 6.76953 151.892 8.20183C152.141 6.47679 152.25 5.19085 150.783 4.39368Z" fill="#9284FF"/>
</g>
<defs>
<clipPath id="clip0_20_3144">
<rect width="285" height="10" fill="white"/>
</clipPath>
</defs>
</svg>
