<svg width="24" height="20" viewBox="0 0 24 20" fill="none" xmlns="http://www.w3.org/2000/svg">
<path d="M12 19.54C11.7033 19.5407 11.4095 19.4828 11.1353 19.3695C10.8611 19.2563 10.6121 19.0899 10.4025 18.88L2.67746 11.155C2.06721 10.5381 1.58583 9.80597 1.26134 9.0012C0.936861 8.19644 0.775771 7.33514 0.787459 6.4675C0.793338 5.67238 0.956028 4.88623 1.26621 4.15408C1.57639 3.42194 2.02796 2.75818 2.59507 2.20083C3.16218 1.64347 3.83367 1.20348 4.57109 0.906047C5.3085 0.608614 6.09736 0.459586 6.89246 0.4675C7.70179 0.459348 8.50452 0.613807 9.25304 0.921718C10.0016 1.22963 10.6806 1.68472 11.25 2.26L12 3.01L12.615 2.395C13.6769 1.30493 15.0979 0.636635 16.6148 0.513906C18.1316 0.391177 19.6416 0.822327 20.865 1.7275C21.5613 2.26379 22.1355 2.94229 22.5491 3.71782C22.9628 4.49335 23.2065 5.34812 23.264 6.22519C23.3214 7.10226 23.1914 7.98152 22.8825 8.8044C22.5736 9.62729 22.0929 10.3749 21.4725 10.9975L13.5975 18.88C13.3878 19.0899 13.1388 19.2563 12.8646 19.3695C12.5905 19.4828 12.2966 19.5407 12 19.54ZM6.86246 1.96C5.67035 1.95878 4.52453 2.42141 3.66746 3.25C3.23051 3.67041 2.88302 4.17479 2.64588 4.73285C2.40874 5.29091 2.28682 5.89114 2.28746 6.4975C2.28088 7.16449 2.40677 7.82614 2.65782 8.44411C2.90887 9.06208 3.28009 9.62407 3.74996 10.0975L11.475 17.8225C11.5447 17.8928 11.6276 17.9486 11.719 17.9867C11.8104 18.0247 11.9085 18.0443 12.0075 18.0443C12.1065 18.0443 12.2045 18.0247 12.2959 17.9867C12.3873 17.9486 12.4702 17.8928 12.54 17.8225L20.4225 9.9325C20.8851 9.46003 21.2426 8.89501 21.4714 8.27455C21.7002 7.65409 21.7951 6.99225 21.75 6.3325C21.7099 5.66599 21.5263 5.016 21.2118 4.42701C20.8972 3.83803 20.4591 3.32397 19.9275 2.92C18.9946 2.23217 17.8434 1.90694 16.6885 2.00491C15.5336 2.10288 14.4537 2.61736 13.65 3.4525L12.5325 4.6C12.4627 4.6703 12.3798 4.72609 12.2884 4.76417C12.197 4.80225 12.099 4.82185 12 4.82185C11.9009 4.82185 11.8029 4.80225 11.7115 4.76417C11.6201 4.72609 11.5372 4.6703 11.4675 4.6L10.1925 3.325C9.31429 2.45446 8.12899 1.96418 6.89246 1.96H6.86246Z" fill="#232328" stroke="#232328" stroke-width="0.3"/>
</svg>
