<svg width="20" height="22" viewBox="0 0 20 22" fill="none" xmlns="http://www.w3.org/2000/svg">
<path d="M3.77475 22H16.2271C16.7625 21.9999 17.2916 21.8892 17.7795 21.6751C18.2674 21.461 18.7028 21.1485 19.0568 20.7584C19.4109 20.3682 19.6754 19.9094 19.833 19.4122C19.9905 18.9151 20.0373 18.3911 19.9704 17.875L18.7912 8.70833C18.6754 7.82306 18.2317 7.00909 17.5431 6.4186C16.8546 5.82812 15.9682 5.50157 15.0498 5.5H14.7178V4.58333C14.7178 3.36776 14.2208 2.20197 13.3362 1.34243C12.4517 0.482886 11.2519 0 10.0009 0C8.74997 0 7.55023 0.482886 6.66565 1.34243C5.78108 2.20197 5.28413 3.36776 5.28413 4.58333V5.5H4.95206C4.03336 5.50112 3.14655 5.82748 2.45757 6.418C1.76859 7.00852 1.32464 7.82275 1.2088 8.70833L0.0295965 17.875C-0.0373373 18.3912 0.00956569 18.9154 0.167188 19.4127C0.324811 19.9099 0.589543 20.3689 0.943792 20.7591C1.29804 21.1493 1.73369 21.4617 2.2218 21.6757C2.7099 21.8896 3.23928 22.0002 3.77475 22ZM7.17085 4.58333C7.17085 3.85399 7.46902 3.15451 7.99977 2.63879C8.53051 2.12306 9.25036 1.83333 10.0009 1.83333C10.7515 1.83333 11.4714 2.12306 12.0021 2.63879C12.5329 3.15451 12.831 3.85399 12.831 4.58333V5.5H7.17085V4.58333ZM1.90123 18.106L3.08043 8.93933C3.13745 8.49601 3.35909 8.08818 3.70373 7.79245C4.04837 7.49672 4.49228 7.33346 4.95206 7.33333H5.28413V9.16667C5.28413 9.40978 5.38352 9.64294 5.56043 9.81485C5.73735 9.98676 5.9773 10.0833 6.22749 10.0833C6.47769 10.0833 6.71763 9.98676 6.89455 9.81485C7.07146 9.64294 7.17085 9.40978 7.17085 9.16667V7.33333H12.831V9.16667C12.831 9.40978 12.9304 9.64294 13.1073 9.81485C13.2843 9.98676 13.5242 10.0833 13.7744 10.0833C14.0246 10.0833 14.2645 9.98676 14.4415 9.81485C14.6184 9.64294 14.7178 9.40978 14.7178 9.16667V7.33333H15.0498C15.5096 7.33346 15.9535 7.49672 16.2982 7.79245C16.6428 8.08818 16.8644 8.49601 16.9215 8.93933L18.1007 18.106C18.1338 18.3641 18.1102 18.626 18.0312 18.8745C17.9522 19.123 17.8197 19.3523 17.6425 19.5472C17.4653 19.7421 17.2474 19.8981 17.0034 20.0049C16.7594 20.1117 16.4948 20.1669 16.2271 20.1667H3.77475C3.50727 20.1666 3.24287 20.1113 2.99908 20.0043C2.75529 19.8974 2.53768 19.7413 2.36069 19.5465C2.1837 19.3516 2.05137 19.1224 1.97248 18.8741C1.89359 18.6257 1.86995 18.3639 1.90312 18.106H1.90123Z" fill="#232328"/>
</svg>
