<svg width="23" height="23" viewBox="0 0 23 23" fill="none" xmlns="http://www.w3.org/2000/svg">
<g clip-path="url(#clip0_15_451)">
<path d="M11.5 0.459961C5.14873 0.459961 0 5.50684 0 11.7304C0 17.9549 5.14873 23 11.5 23C17.8513 23 23 17.9549 23 11.7304C23 5.50684 17.8508 0.459961 11.5 0.459961ZM14.5435 11.6833H12.5522C12.5522 14.8019 12.5522 18.6433 12.5522 18.6433H9.60069C9.60069 18.6433 9.60069 14.8413 9.60069 11.6833H8.19687V9.22597H9.60069V7.63369C9.60069 6.49406 10.1527 4.71505 12.5797 4.71505L14.7653 4.72328V7.1101C14.7653 7.1101 13.4362 7.1101 13.1784 7.1101C12.9192 7.1101 12.5526 7.23688 12.5526 7.77878V9.22643H14.8027L14.5435 11.6833Z" fill="#9284FF"/>
</g>
<defs>
<clipPath id="clip0_15_451">
<rect width="23" height="23" fill="white"/>
</clipPath>
</defs>
</svg>
