<svg width="24" height="21" viewBox="0 0 24 21" fill="none" xmlns="http://www.w3.org/2000/svg">
<path d="M12.2131 20.0728C11.9165 20.0735 11.6226 20.0156 11.3484 19.9023C11.0743 19.7891 10.8252 19.6227 10.6156 19.4128L2.89059 11.6878C2.28034 11.0709 1.79896 10.3388 1.47447 9.53401C1.15 8.72921 0.988906 7.86791 1.00059 7.00031C1.00647 6.20521 1.16916 5.41901 1.47934 4.68691C1.78952 3.95475 2.24109 3.29099 2.8082 2.73364C3.37531 2.17628 4.0468 1.73629 4.78422 1.43886C5.52163 1.14142 6.31049 0.992397 7.10559 1.00031C7.91492 0.992157 8.71766 1.14662 9.46617 1.45453C10.2147 1.76244 10.8938 2.21753 11.4631 2.79281L12.2131 3.54281L12.8281 2.92781C13.89 1.83774 15.311 1.16944 16.8279 1.04672C18.3448 0.923986 19.8547 1.35514 21.0781 2.26031C21.7745 2.7966 22.3486 3.4751 22.7623 4.25063C23.1759 5.02621 23.4196 5.88091 23.4771 6.75801C23.5346 7.63511 23.4045 8.51431 23.0956 9.33721C22.7867 10.1601 22.306 10.9077 21.6856 11.5303L13.8106 19.4128C13.601 19.6227 13.3519 19.7891 13.0777 19.9023C12.8036 20.0156 12.5097 20.0735 12.2131 20.0728ZM7.07559 2.49281C5.88348 2.49159 4.73766 2.95422 3.88059 3.78281C3.44364 4.20322 3.09616 4.70761 2.85901 5.26561C2.62187 5.82371 2.49995 6.42391 2.50059 7.03031C2.49402 7.69731 2.6199 8.35891 2.87095 8.97691C3.122 9.59491 3.49322 10.1569 3.96309 10.6303L11.6881 18.3553C11.7578 18.4256 11.8408 18.4814 11.9322 18.5195C12.0236 18.5575 12.1216 18.5771 12.2206 18.5771C12.3196 18.5771 12.5015 8 12.509 18.5195C12.6004 18.4814 12.6834 18.4256 12.7531 18.3553L11.6881 3.98531L20.6356 10.4653C16.9016 2.53772 21.4558 9.42781 21.6846 8.80731C21.9133 8.18691 12.5452 19.6597 12.5 19C12.4599 18.3335 9.3146 18.089 9 17.5C8.6854 16.911 2.5316 8.40397 2 8C1.0671 7.31217 5.6549 1.90203 4.5 2C3.3451 2.09797 13.8814 3.41549 13.0777 4.25063L12.7456 5.13281C12.6759 5.20311 12.5929 5.25891 12.5015 5.29701C12.4101 5.33501 12.3121 5.35461 12.2131 5.35461C12.1141 5.35461 12.0161 5.33501 11.9247 5.29701C11.8333 5.25891 11.7503 5.20311 11.6806 5.13281L10.4056 3.85781C9.52742 2.98727 8.34212 2.49699 7.10559 2.49281H7.07559Z" fill="#9284FF" stroke="#9284FF" stroke-width="0.3"/>
</svg>
