<svg width="32" height="28" viewBox="0 0 32 28" fill="none" xmlns="http://www.w3.org/2000/svg">
<path d="M12 25.54C11.7034 25.5407 11.4095 25.4828 11.1353 25.3695C10.8612 25.2563 10.6121 25.0899 10.4025 24.88L2.67749 17.155C2.06724 16.5381 1.58586 15.806 1.26137 15.0012C0.936892 14.1964 0.775802 13.3351 0.787489 12.4675C0.793369 11.6724 0.956058 10.8862 1.26624 10.1541C1.57642 9.42194 2.02799 8.75818 2.5951 8.20083C3.16221 7.64347 3.8337 7.20348 4.57112 6.90605C5.30853 6.60861 6.09739 6.45959 6.89249 6.4675C7.70182 6.45935 8.50456 6.61381 9.25307 6.92172C10.0016 7.22963 10.6807 7.68472 11.25 8.26L12 9.01L12.615 8.395C13.6769 7.30493 15.0979 6.63663 16.6148 6.51391C18.1317 6.39118 19.6416 6.82233 20.865 7.7275C21.5614 8.26379 22.1355 8.94229 22.5492 9.71782C22.9628 10.4934 23.2065 11.3481 23.264 12.2252C23.3215 13.1023 23.1914 13.9815 22.8825 14.8044C22.5736 15.6273 22.0929 16.3749 21.4725 16.9975L13.5975 24.88C13.3879 25.0899 13.1388 25.2563 12.8646 25.3695C12.5905 25.4828 12.2966 25.5407 12 25.54ZM6.86249 7.96C5.67038 7.95878 4.52456 8.42141 3.66749 9.25C3.23054 9.67041 2.88306 10.1748 2.64591 10.7328C2.40877 11.2909 2.28685 11.8911 2.28749 12.4975C2.28092 13.1645 2.4068 13.8261 2.65785 14.4441C2.9089 15.0621 3.28012 15.6241 3.74999 16.0975L11.475 23.8225C11.5447 23.8928 11.6277 23.9486 11.7191 23.9867C11.8105 24.0247 11.9085 24.0443 12.0075 24.0443C12.1065 24.0443 12.2045 24.0247 12.2959 23.9867C12.3873 23.9486 12.4703 23.8928 12.54 23.8225L20.4225 15.9325C20.8852 15.46 21.2427 14.895 21.4715 14.2745C21.7002 13.6541 21.7952 12.9922 21.75 12.3325C21.7099 11.666 21.5264 11.016 21.2118 10.427C20.8972 9.83803 20.4591 9.32397 19.9275 8.92C18.9946 8.23217 17.8434 7.90694 16.6885 8.00491C15.5336 8.10288 14.4537 8.61736 13.65 9.4525L12.5325 10.6C12.4628 10.6703 12.3798 10.7261 12.2884 10.7642C12.197 10.8022 12.099 10.8218 12 10.8218C11.901 10.8218 11.803 10.8022 11.7116 10.7642C11.6202 10.7261 11.5372 10.6703 11.4675 10.6L10.1925 9.325C9.31432 8.45446 8.12902 7.96418 6.89249 7.96H6.86249Z" fill="#232328" stroke="#232328" stroke-width="0.3"/>
<rect x="15" width="17" height="17" rx="8.5" fill="#9284FF"/>
<path d="M17.96 6.256L19.82 5.704V13H20.84V4.48L17.96 5.2V6.256ZM22.6423 13H28.5703V12.04H24.7423L27.4183 9.316C27.7463 8.98 28.0143 8.6 28.2223 8.176C28.4303 7.752 28.5343 7.324 28.5343 6.892C28.5343 6.636 28.4823 6.368 28.3783 6.088C28.2743 5.808 28.1143 5.548 27.8983 5.308C27.6823 5.06 27.4063 4.86 27.0703 4.708C26.7343 4.548 26.3343 4.468 25.8703 4.468C25.2943 4.468 24.7983 4.596 24.3823 4.852C23.9743 5.1 23.6623 5.452 23.4463 5.908C23.2303 6.356 23.1223 6.88 23.1223 7.48H24.1423C24.1423 7.056 24.2103 6.692 24.3463 6.388C24.4823 6.076 24.6783 5.84 24.9343 5.68C25.1983 5.512 25.5103 5.428 25.8703 5.428C26.1263 5.428 26.3543 5.472 26.5543 5.56C26.7543 5.648 26.9223 5.764 27.0583 5.908C27.2023 6.052 27.3103 6.212 27.3823 6.388C27.4543 6.564 27.4903 6.744 27.4903 6.928C27.4903 7.152 27.4543 7.368 27.3823 7.576C27.3183 7.776 27.2183 7.976 27.0823 8.176C26.9543 8.368 26.7983 8.564 26.6143 8.764L22.6423 13Z" fill="white"/>
</svg>
