<svg width="24" height="20" viewBox="0 0 24 20" fill="none" xmlns="http://www.w3.org/2000/svg">
<path d="M12 19.54C11.7034 19.5407 11.4095 19.4828 11.1353 19.3695C10.8612 19.2563 10.6121 19.0899 10.4025 18.88L2.67749 11.155C2.06724 10.5381 1.58586 9.806 1.26137 9.0012C0.936892 8.1964 0.775802 7.3351 0.787489 6.4675C0.793369 5.6724 0.956058 4.8862 1.26624 4.1541C1.57642 3.42194 2.02799 2.75818 2.5951 2.20083C3.16221 1.64347 3.8337 1.20348 4.57112 0.90605C5.30853 0.60861 6.09739 0.45959 6.89249 0.4675C7.70182 0.45935 8.50456 0.61381 9.25307 0.92172C10.0016 1.22963 10.6807 1.68472 11.25 2.26L12 3.01L12.615 2.395C13.6769 1.30493 15.0979 0.63663 16.6148 0.51391C18.1317 0.39118 19.6416 0.82233 20.865 1.7275C21.5614 2.26379 22.1355 2.94229 22.5492 3.71782C22.9628 4.4934 23.2065 5.3481 23.264 6.2252C23.3215 7.1023 23.1914 7.9815 22.8825 8.8044C22.5736 9.6273 22.0929 10.3749 21.4725 10.9975L13.5975 18.88C13.3879 19.0899 13.1388 19.2563 12.8646 19.3695C12.5905 19.4828 12.2966 19.5407 12 19.54ZM6.86249 1.96C5.67038 1.95878 4.52456 2.42141 3.66749 3.25C3.23054 3.67041 2.88306 4.1748 2.64591 4.7328C2.40877 5.2909 2.28685 5.8911 2.28749 6.4975C2.28092 7.1645 2.4068 7.8261 2.65785 8.4441C2.9089 9.0621 3.28012 9.6241 3.74999 10.0975L11.475 17.8225C11.5447 17.8928 11.6277 17.9486 11.7191 17.9867C11.8105 18.0247 11.9085 18.0443 12.0075 18.0443C12.1065 18.0443 12.2045 18.0247 12.2959 17.9867C12.3873 17.9486 12.4703 17.8928 12.54 17.8225L20.4225 9.9325C20.8852 9.46 21.2427 8.895 21.4715 8.2745C21.7002 7.6541 21.7952 6.9922 21.75 6.3325C21.7099 5.666 21.5264 5.016 21.2118 4.427C20.8972 3.83803 20.4591 3.32397 19.9275 2.92C18.9946 2.23217 17.8434 1.90694 16.6885 2.00491C15.5336 2.10288 14.4537 2.61736 13.65 3.4525L12.5325 4.6C12.4628 4.6703 12.3798 4.7261 12.2884 4.7642C12.197 4.8022 12.099 4.8218 12 4.8218C11.901 4.8218 11.803 4.8022 11.7116 4.7642C11.6202 4.7261 11.5372 4.6703 11.4675 4.6L10.1925 3.325C9.31432 2.45446 8.12902 1.96418 6.89249 1.96H6.86249Z" fill="#232328" stroke="#232328" stroke-width="0.3"/>
</svg>
