<svg width="23" height="23" viewBox="0 0 23 23" fill="none" xmlns="http://www.w3.org/2000/svg">
<g clip-path="url(#clip0_15_453)">
<path d="M14.1395 6.62695H8.86053C8.56723 6.62695 8.2768 6.68471 8.00583 6.79695C7.73486 6.90919 7.48864 7.0737 7.28125 7.2811C7.07385 7.48849 6.90934 7.7347 6.7971 8.00568C6.68487 8.27665 6.6271 8.56708 6.62711 8.86038V14.1393C6.62711 14.7317 6.86241 15.2998 7.28126 15.7186C7.48865 15.926 7.73487 16.0905 8.00584 16.2027C8.27681 16.315 8.56723 16.3728 8.86053 16.3728H14.1395C14.7318 16.3727 15.2999 16.1374 15.7187 15.7186C16.1376 15.2997 16.3729 14.7317 16.3729 14.1393V8.86038C16.3729 8.56708 16.3151 8.27666 16.2029 8.00569C16.0906 7.73472 15.9261 7.4885 15.7187 7.28111C15.5113 7.07372 15.2651 6.9092 14.9942 6.79696C14.7232 6.68472 14.4328 6.62695 14.1395 6.62695ZM11.5 14.5721C10.8924 14.5721 10.2984 14.3919 9.79315 14.0543C9.28793 13.7168 8.89415 13.2369 8.66162 12.6756C8.42908 12.1142 8.36824 11.4964 8.48679 10.9005C8.60533 10.3045 8.89793 9.75711 9.3276 9.32744C9.75726 8.89778 10.3047 8.60518 10.9006 8.48663C11.4966 8.36809 12.1143 8.42893 12.6757 8.66146C13.2371 8.894 13.7169 9.28777 14.0545 9.793C14.3921 10.2982 14.5723 10.8922 14.5723 11.4999C14.5723 11.9033 14.4928 12.3028 14.3384 12.6756C14.184 13.0483 13.9577 13.387 13.6724 13.6723C13.3871 13.9576 13.0484 14.1839 12.6757 14.3382C12.303 14.4926 11.9035 14.5721 11.5 14.5721ZM14.7003 9.05521C14.5558 9.05521 14.4144 9.01235 14.2942 8.93204C14.174 8.85174 14.0803 8.73758 14.025 8.60403C13.9697 8.47047 13.9552 8.3235 13.9834 8.18171C14.0116 8.03992 14.0812 7.90968 14.1834 7.80746C14.2856 7.70523 14.4159 7.63561 14.5577 7.60741C14.6995 7.5792 14.8464 7.59367 14.98 7.64899C15.1135 7.70431 15.2277 7.798 15.308 7.9182C15.3883 8.0384 15.4312 8.17972 15.4312 8.32428C15.4312 8.51813 15.3542 8.70403 15.2171 8.84111C15.0801 8.97818 14.8942 9.05519 14.7003 9.05521Z" fill="#9284FF"/>
<path d="M11.5 9.50293C11.105 9.50293 10.7189 9.62005 10.3905 9.83949C10.0621 10.0589 9.80615 10.3708 9.655 10.7357C9.50386 11.1006 9.46431 11.5021 9.54136 11.8895C9.61842 12.2769 9.80861 12.6327 10.0879 12.912C10.3672 13.1913 10.723 13.3815 11.1104 13.4586C11.4978 13.5356 11.8993 13.4961 12.2642 13.3449C12.6291 13.1938 12.941 12.9378 13.1604 12.6094C13.3799 12.281 13.497 11.8949 13.497 11.4999C13.497 10.9703 13.2866 10.4623 12.9121 10.0878C12.5376 9.71333 12.0296 9.50293 11.5 9.50293Z" fill="#9284FF"/>
<path d="M11.5 0C5.14872 0 0 5.14872 0 11.5C0 17.8513 5.14872 23 11.5 23C17.8513 23 23 17.8513 23 11.5C23 5.14872 17.8513 0 11.5 0ZM17.4896 14.0381C17.4895 14.9535 17.1259 15.8313 16.4786 16.4786C15.8313 17.1259 14.9535 17.4895 14.0381 17.4896H8.96191C8.04653 17.4895 7.16865 17.1259 6.52137 16.4786C5.87409 15.8313 5.51043 14.9535 5.51039 14.0381V8.96191C5.51042 8.04653 5.87408 7.16864 6.52136 6.52137C7.16864 5.8741 8.04653 5.51046 8.96191 5.51043H14.0381C14.9535 5.51047 15.8313 5.87412 16.4786 6.52139C17.1259 7.16866 17.4895 8.04653 17.4896 8.96191V14.0381Z" fill="#9284FF"/>
</g>
<defs>
<clipPath id="clip0_15_453">
<rect width="23" height="23" fill="white"/>
</clipPath>
</defs>
</svg>
