<svg width="24" height="21" viewBox="0 0 24 21" fill="none" xmlns="http://www.w3.org/2000/svg">
<path d="M12.2131 20.0728C11.9165 20.0735 11.6226 20.0156 11.3484 19.9023C11.0743 19.7891 10.8252 19.6227 10.6156 19.4128L2.89059 11.6878C2.28035 11.0709 1.79896 10.3388 1.47448 9.53401C1.15 8.72924 0.988906 7.86795 1.00059 7.00031C1.00647 6.20519 1.16916 5.41904 1.47934 4.68689C1.78952 3.95474 2.2411 3.29098 2.8082 2.73363C3.37531 2.17628 4.0468 1.73629 4.78422 1.43885C5.52164 1.14142 6.31049 0.992393 7.10559 1.00031C7.91493 0.992154 8.71766 1.14661 9.46618 1.45452C10.2147 1.76243 10.8938 2.21753 11.4631 2.79281L12.2131 3.54281L12.8281 2.92781C13.89 1.83773 15.311 1.16944 16.8279 1.04671C18.3448 0.923984 19.8547 1.35513 21.0781 2.26031C21.7745 2.79659 22.3486 3.47509 22.7623 4.25063C23.1759 5.02616 23.4196 5.88092 23.4771 6.758C23.5346 7.63507 23.4045 8.51433 23.0956 9.33721C22.7867 10.1601 22.306 10.9077 21.6856 11.5303L13.8106 19.4128C13.601 19.6227 13.3519 19.7891 13.0777 19.9023C12.8036 20.0156 12.5097 20.0735 12.2131 20.0728ZM7.07559 2.49281C5.88348 2.49159 4.73767 2.95422 3.88059 3.78281C3.44364 4.20321 3.09616 4.70759 2.85902 5.26566C2.62187 5.82372 2.49996 6.42395 2.50059 7.03031C2.49402 7.69729 2.61991 8.35895 2.87096 8.97692C3.12201 9.59489 3.49323 10.1569 3.96309 10.6303L11.6881 18.3553C11.7578 18.4256 11.8408 18.4814 11.9322 18.5195C12.0236 18.5576 12.1216 18.5772 12.2206 18.5772C12.3196 18.5772 12.4176 18.5576 12.509 18.5195C12.6004 18.4814 12.6834 18.4256 12.7531 18.3553L20.6356 10.4653C21.0983 9.99284 21.4558 9.42781 21.6846 8.80736C21.9134 8.1869 22.0083 7.52506 21.9631 6.86531C21.923 6.19879 21.7395 5.5488 21.4249 4.95982C21.1103 4.37084 20.6722 3.85677 20.1406 3.45281C19.2077 2.76498 18.0565 2.43975 16.9016 2.53772C15.7467 2.63568 14.6668 3.15016 13.8631 3.98531L12.7456 5.13281C12.6759 5.2031 12.5929 5.2589 12.5015 5.29698C12.4101 5.33505 12.3121 5.35466 12.2131 5.35466C12.1141 5.35466 12.0161 5.33505 11.9247 5.29698C11.8333 5.2589 11.7503 5.2031 11.6806 5.13281L10.4056 3.85781C9.52742 2.98726 8.34213 2.49698 7.10559 2.49281H7.07559Z" fill="#9284FF" stroke="#9284FF" stroke-width="0.3"/>
</svg>
