<svg width="20" height="24" viewBox="0 0 20 24" fill="none" xmlns="http://www.w3.org/2000/svg">
<path d="M16.3327 12.2438C16.2564 12.1661 16.166 12.1046 16.0665 12.0628C15.967 12.0209 15.8605 11.9996 15.753 12C15.6455 12.0004 15.5391 12.0225 15.4399 12.065C15.3408 12.1076 15.2507 12.1698 15.175 12.248C15.0992 12.3262 15.0393 12.419 14.9985 12.521C14.9577 12.623 14.9369 12.7322 14.9373 12.8425C14.9376 12.9527 14.9592 13.0618 15.0007 13.1635C15.0422 13.2652 15.1028 13.3575 15.1791 13.4352C15.8714 14.1376 16.4209 14.9739 16.7959 15.8956C17.1709 16.8173 17.3639 17.8062 17.3636 18.8049C17.3636 19.8285 14.4918 21.322 10 21.322C5.50821 21.322 2.63641 19.8285 2.63641 18.8049C2.63511 17.8128 2.82448 16.8301 3.1937 15.9131C3.56292 14.996 4.10475 14.1626 4.78822 13.4604C4.9406 13.3032 5.02614 13.0905 5.02614 12.8689C5.02614 12.6472 4.9406 12.4345 4.78822 12.2773C4.63492 12.1211 4.42755 12.0334 4.2114 12.0334C3.99525 12.0334 3.78788 12.1211 3.63458 12.2773C2.79604 13.1324 2.13137 14.1497 1.67913 15.2703C1.22689 16.3908 0.996067 17.5922 1.00005 18.8049C1.00005 21.5317 5.63912 23 10 23C14.3609 23 19 21.5317 19 18.8049C19.0031 17.5844 18.7688 16.3754 18.3108 15.2488C17.8529 14.1222 17.1804 13.1006 16.3327 12.2438Z" fill="#232328" stroke="#232328" stroke-width="0.3"/>
<path d="M10 13C11.1867 13 12.3467 12.6481 13.3334 11.9888C14.3201 11.3295 15.0891 10.3925 15.5433 9.2961C15.9974 8.19975 16.1162 6.99335 15.8847 5.82946C15.6532 4.66557 15.0818 3.59648 14.2426 2.75736C13.4035 1.91825 12.3344 1.3468 11.1705 1.11529C10.0067 0.88378 8.80025 1.0026 7.7039 1.45673C6.60754 1.91085 5.67047 2.67989 5.01118 3.66658C4.35189 4.65328 4 5.81331 4 7C4 8.5913 4.63214 10.1174 5.75736 11.2426C6.88258 12.3679 8.4087 13 10 13ZM10 2.71429C10.8476 2.71429 11.6762 2.96564 12.381 3.43656C13.0858 3.90748 13.6351 4.57682 13.9595 5.35993C14.2839 6.14304 14.3687 7.00476 14.2034 7.8361C14.038 8.66745 13.6298 9.43109 13.0305 10.0305C12.4311 10.6298 11.6674 11.038 10.8361 11.2034C10.0048 11.3687 9.14304 11.2839 8.35993 10.9595C7.57682 10.6351 6.90748 10.0858 6.43656 9.38102C5.96564 8.67623 5.71429 7.84764 5.71429 7C5.71429 5.86336 6.16581 4.77327 6.96954 3.96954C7.77327 3.16582 8.86336 2.71429 10 2.71429Z" fill="#232328" stroke="#232328" stroke-width="0.3"/>
</svg>
