<svg width="27" height="28" viewBox="0 0 27 28" fill="none" xmlns="http://www.w3.org/2000/svg">
<path d="M5.77475 27H18.2271C18.7625 26.9999 19.2916 26.8892 19.7795 26.6751C20.2674 26.461 20.7028 26.1485 21.0568 25.7584C21.4109 25.3682 21.6754 24.9094 21.833 24.4122C21.9905 23.9151 22.0373 23.3911 21.9704 22.875L20.7912 13.7083C20.6754 12.8231 20.2317 12.0091 19.5431 11.4186C18.8546 10.8281 17.9682 10.5016 17.0498 10.5H16.7178V9.58333C16.7178 8.36776 16.2208 7.20197 15.3362 6.34243C14.4517 5.48289 13.2519 5 12.0009 5C10.75 5 9.55023 5.48289 8.66565 6.34243C7.78108 7.20197 7.28413 8.36776 7.28413 9.58333V10.5H6.95206C6.03336 10.5011 5.14655 10.8275 4.45757 11.418C3.76859 12.0085 3.32464 12.8228 3.2088 13.7083L2.0296 22.875C1.96266 23.3912 2.00957 23.9154 2.16719 24.4127C2.32481 24.9099 2.58954 25.3689 2.94379 25.7591C3.29804 26.1493 3.73369 26.4617 4.2218 26.6757C4.7099 26.8896 5.23928 27.0002 5.77475 27ZM9.17085 9.58333C9.17085 8.85399 9.46902 8.15451 9.99977 7.63879C10.5305 7.12306 11.2504 6.83333 12.0009 6.83333C12.7515 6.83333 13.4714 7.12306 14.0021 7.63879C14.5329 8.15451 14.831 8.85399 14.831 9.58333V10.5H9.17085V9.58333ZM3.90123 23.106L5.08043 13.9393C5.13745 13.496 5.35909 13.0882 5.70373 12.7924C6.04837 12.4967 6.49228 12.3335 6.95206 12.3333H7.28413V14.1667C7.28413 14.4098 7.38352 14.6429 7.56043 14.8148C7.73735 14.9868 7.9773 15.0833 8.22749 15.0833C8.47769 15.0833 8.71763 14.9868 8.89455 14.8148C9.07146 14.6429 9.17085 14.4098 9.17085 14.1667V12.3333H14.831V14.1667C14.831 14.4098 14.9304 14.6429 15.1073 14.8148C15.2843 14.9868 15.5242 15.0833 15.7744 15.0833C16.0246 15.0833 16.2645 14.9868 16.4415 14.8148C16.6184 14.6429 16.7178 14.4098 16.7178 14.1667V12.3333H17.0498C17.5096 12.3335 17.9535 12.4967 18.2982 12.7924C18.6428 13.0882 18.8644 13.496 18.9215 13.9393L20.1007 23.106C20.1338 23.3641 20.1102 23.626 20.0312 23.8745C19.9522 24.123 19.8197 24.3523 19.6425 24.5472C19.4653 24.7421 19.2474 24.8981 19.0034 25.0049C18.7594 25.1117 18.4948 25.1669 18.2271 25.1667H5.77475C5.50727 25.1666 5.24287 25.1113 4.99908 25.0043C4.75529 24.8974 4.53768 24.7413 4.36069 24.5465C4.1837 24.3516 4.05137 24.1224 3.97248 23.8741C3.89359 23.6257 3.86995 23.3639 3.90312 23.106H3.90123Z" fill="#232328"/>
<rect x="10" width="17" height="17" rx="8.5" fill="#9284FF"/>
<path d="M16 8.8C16 8.312 16.048 7.864 16.144 7.456C16.24 7.04 16.38 6.684 16.564 6.388C16.748 6.084 16.968 5.852 17.224 5.692C17.488 5.524 17.78 5.44 18.1 5.44C18.428 5.44 18.72 5.524 18.976 5.692C19.232 5.852 19.452 6.084 19.636 6.388C19.82 6.684 19.96 7.04 20.056 7.456C20.152 7.864 20.2 8.312 20.2 8.8C20.2 9.288 20.152 9.74 20.056 10.156C19.96 10.564 19.82 10.92 19.636 11.224C19.452 11.52 19.232 11.752 18.976 11.92C18.72 12.08 18.428 12.16 18.1 12.16C17.78 12.16 17.488 12.08 17.224 11.92C16.968 11.752 16.748 11.52 16.564 11.224C16.38 10.92 16.24 10.564 16.144 10.156C16.048 9.74 16 9.288 16 8.8ZM14.98 8.8C14.98 9.64 15.112 10.384 15.376 11.032C15.64 11.68 16.004 12.192 16.468 12.568C16.94 12.936 17.484 13.12 18.1 13.12C18.716 13.12 19.256 12.936 19.72 12.568C20.192 12.192 20.56 11.68 20.824 11.032C21.088 10.384 21.22 9.64 21.22 8.8C21.22 7.96 21.088 7.216 20.824 6.568C20.56 5.92 20.192 5.412 19.72 5.044C19.256 4.668 18.716 4.48 18.1 4.48C17.484 4.48 16.94 4.668 16.468 5.044C16.004 5.412 15.64 5.92 15.376 6.568C15.112 7.216 14.98 7.96 14.98 8.8Z" fill="white"/>
</svg>
