<svg width="23" height="23" viewBox="0 0 23 23" fill="none" xmlns="http://www.w3.org/2000/svg">
<g clip-path="url(#clip0_15_457)">
<path d="M11.5005 0C5.14894 0 0 5.14987 0 11.5005C0 17.852 5.14894 23 11.5005 23C17.852 23 23 17.852 23 11.5005C23 5.14987 17.8515 0 11.5005 0ZM17.2934 9.18169C17.2995 9.30592 17.3018 9.43062 17.3018 9.55671C17.3018 13.3868 14.3867 17.8025 9.05606 17.8025C7.41961 17.8025 5.89571 17.3229 4.61326 16.5009C4.84024 16.5275 5.07048 16.5411 5.30446 16.5411C6.66256 16.5411 7.91232 16.0778 8.90381 15.3006C7.63584 15.2768 6.56589 14.4385 6.19694 13.2873C6.37348 13.3219 6.55515 13.3391 6.74196 13.3391C7.00629 13.3391 7.26222 13.3046 7.50554 13.2378C6.1792 12.9716 5.18023 11.7994 5.18023 10.3964C5.18023 10.3838 5.18023 10.3717 5.1807 10.3591C5.57113 10.5762 6.01807 10.7065 6.4935 10.7219C5.71544 10.2012 5.20405 9.31526 5.20405 8.30929C5.20405 7.77829 5.34696 7.27997 5.59635 6.85218C7.02591 8.60539 9.16161 9.7594 11.5705 9.87989C11.521 9.66833 11.4953 9.4465 11.4953 9.21952C11.4953 7.6195 12.7927 6.32164 14.3937 6.32164C15.2273 6.32164 15.9802 6.67377 16.5088 7.23654C17.1692 7.10717 17.7894 6.86525 18.3494 6.5332C18.1322 7.21038 17.6731 7.77829 17.0744 8.13649C17.6614 8.06644 18.22 7.91045 18.7393 7.68021C18.3517 8.26259 17.8599 8.77305 17.2934 9.18169Z" fill="#9284FF"/>
</g>
<defs>
<clipPath id="clip0_15_457">
<rect width="23" height="23" fill="white"/>
</clipPath>
</defs>
</svg>
